# xmcd CD database file
#
# Track frame offsets:
#	150
#	22229
#	35836
#	64918
#	80411
#	127559
#	149453
#	169919
#	186454
#	217067
#
# Disc length: 3212 seconds
#
# Revision: 1
# Processed by: cddbd v1.5.2PL0 Copyright (c) Steve Scherf et al.
# Submitted via: CDex 1.51
#
DISCID=990c8a0a
DTITLE=Re-Late - Timeless Blues
DYEAR=2007
DGENRE=Blues
TTITLE0=Restaurant Lover
TTITLE1=She Devil
TTITLE2=Perfect Dream
TTITLE3=Beate
TTITLE4=In My Own Time
TTITLE5=Cansado
TTITLE6=Pride And Joy
TTITLE7=Goin Down Fast
TTITLE8=Grab Another Can
TTITLE9=Probably Me
EXTD=YEAR: 2007
EXTT0=
EXTT1=
EXTT2=
EXTT3=
EXTT4=
EXTT5=
EXTT6=
EXTT7=
EXTT8=
EXTT9=
PLAYORDER=
